<svg width="640" height="200" viewBox="0 0 640 200" fill="none" xmlns="http://www.w3.org/2000/svg">
  <rect width="640" height="200" rx="20" fill="#0B1320"/>
  <circle cx="96" cy="100" r="48" fill="#152238"/>
  <path d="M74 130L96 70L118 130H106L101 116H91L86 130H74ZM93 105H99L96 94L93 105Z" fill="#63E6BE"/>
  <path d="M130 70H142V119H168V130H130V70Z" fill="#63E6BE"/>
  <path d="M179 70H191V130H179V70Z" fill="#63E6BE"/>
  <path d="M202 70H214V119H240V130H202V70Z" fill="#63E6BE"/>
  <path d="M251 70H263V104L282 70H296L276 106L297 130H283L263 107V130H251V70Z" fill="#63E6BE"/>
  <text x="320" y="94" fill="#F8FAFC" font-family="Arial, Helvetica, sans-serif" font-size="44" font-weight="700">ALLOY</text>
  <text x="320" y="126" fill="#94A3B8" font-family="Arial, Helvetica, sans-serif" font-size="18">Single-Port REST + gRPC Framework in Rust</text>
</svg>
