<svg width="1200" height="320" viewBox="0 0 1200 320" fill="none" xmlns="http://www.w3.org/2000/svg">
  <defs>
    <linearGradient id="bgGradient" x1="56" y1="24" x2="1144" y2="296" gradientUnits="userSpaceOnUse">
      <stop offset="0" stop-color="#0B1320"/>
      <stop offset="1" stop-color="#0F1E3A"/>
    </linearGradient>
    <linearGradient id="orbGradient" x1="128" y1="56" x2="320" y2="248" gradientUnits="userSpaceOnUse">
      <stop offset="0" stop-color="#2CF2C9"/>
      <stop offset="1" stop-color="#39A0FF"/>
    </linearGradient>
    <linearGradient id="sparkGradient" x1="124" y1="30" x2="192" y2="92" gradientUnits="userSpaceOnUse">
      <stop offset="0" stop-color="#9EF9FF"/>
      <stop offset="1" stop-color="#2CF2C9"/>
    </linearGradient>
  </defs>
  <rect x="24" y="24" width="1152" height="272" rx="36" fill="url(#bgGradient)"/>
  <circle cx="224" cy="160" r="96" fill="url(#orbGradient)"/>
  <path d="M154 208V112H176L202 164L228 112H250V208H228V150L205 196H199L176 150V208H154Z" fill="#061019"/>
  <path d="M136 56L144 38L152 56L170 64L152 72L144 90L136 72L118 64L136 56Z" fill="url(#sparkGradient)"/>
  <text x="352" y="178" fill="#F8FAFC" font-family="Avenir Next, Montserrat, Segoe UI, sans-serif" font-size="108" font-weight="700" letter-spacing="4">MELD</text>
  <text x="356" y="224" fill="#97A6C2" font-family="Avenir Next, Montserrat, Segoe UI, sans-serif" font-size="36" font-weight="500">Single-Port REST + gRPC for Rust</text>
</svg>
